<svg xmlns="http://www.w3.org/2000/svg" width="828" height="118" viewBox="0 0 828 118"><g fill="#043754"><path d="M35.594 38.987v41.908h16.55c8.626 0 14.842-1.663 18.538-4.924 3.755-3.267 5.62-8.61 5.62-16.07 0-7.384-1.873-12.73-5.67-15.996-3.777-3.268-9.956-4.924-18.49-4.924H35.595v.007zM2.3 17.68h55.064c17.806 0 31.415 3.647 40.732 11.032 9.367 7.334 14.036 18.024 14.036 32.082 0 14.008-4.676 24.676-13.97 31.988-9.303 7.29-22.847 10.966-40.805 10.966H2.3V17.68zm161.246 56.44h21.298l-10.31-30.267-10.988 30.267zm-46.606 29.613l37.216-85.957h42.25l34.754 85.957h-36.055l-2.876-8.445h-36.563l-3.087 8.445h-35.64zm143.035 0V39.59H228.94V17.783h95.54v21.814h-31.188v64.143h-33.317v-.007zM366.57 74.12h21.342L377.55 43.853 366.57 74.12zm-46.59 29.613l37.223-85.957h42.263l34.77 85.957h-36.12l-2.818-8.445h-36.563l-3.094 8.445h-35.66zM622.62 39.59h-18.55v15.33h19.39c5.055 0 8.665-.603 10.74-1.8 2.064-1.23 3.108-3.233 3.108-6.05 0-2.782-.965-4.728-2.92-5.853-1.995-1.06-5.91-1.627-11.77-1.627M497.76 74.12h21.306L508.72 43.853"/><path d="M442.84 114.4h338.644V8.48H442.84V114.4zm86.43-10.667l-2.825-8.445H489.91l-3.086 8.445h-35.67l37.23-85.957h42.22l34.77 85.957H529.27zm145.96 0h-37.006c-1.133-1.837-1.743-5.352-1.896-10.58-.035-3.08-.18-5.418-.392-7.095-.34-3.16-1.365-5.353-3.166-6.623-1.743-1.285-4.727-1.902-8.845-1.902h-19.868v26.193H570.29V17.783h65.42c7.494 0 13.472.378 17.967 1.082 4.516.712 7.973 1.837 10.515 3.348 3.202 1.88 5.65 4.43 7.35 7.654 1.69 3.202 2.533 6.847 2.533 11.066 0 5.062-1.27 9.528-3.783 13.362-2.498 3.878-5.983 6.66-10.385 8.38 3.763 1.554 6.456 3.52 7.98 5.875 1.51 2.31 2.404 6.506 2.673 12.396.058.682.11 1.575.13 2.716.553 11.27 2.07 17.5 4.54 18.706v1.365zm98.23-64.143h-31.183v64.143h-33.31V39.59h-31.043V17.783h95.535V39.59zM810.146 8.575c-8.627 0-15.568 6.957-15.568 15.562 0 8.59 6.94 15.548 15.568 15.548 8.59 0 15.54-6.957 15.54-15.548-.007-8.605-6.957-15.562-15.54-15.562m0 27.988c-6.905 0-12.49-5.562-12.49-12.432 0-6.89 5.585-12.46 12.49-12.46 6.855 0 12.447 5.577 12.447 12.46 0 6.877-5.592 12.433-12.447 12.433"/><path d="M812.57 23.934v-.036c.98-.225 2.74-.98 2.74-3.326 0-1.925-.99-3.878-4.802-3.878h-5.062v14.298h2.89v-5.874h1.083c.98 0 1.517.48 1.865 1.35l1.86 4.532h3.21l-2.316-5.548c-.336-.82-.8-1.344-1.47-1.518m-2.657-1.082h-1.568v-3.914h1.568c2.267 0 2.418 1.474 2.418 1.953 0 .83-.58 1.962-2.417 1.962"/></g></svg>