<?xml version="1.0" encoding="utf-8"?>
<!-- Generator: Adobe Illustrator 16.2.0, SVG Export Plug-In . SVG Version: 6.00 Build 0)  -->
<!DOCTYPE svg PUBLIC "-//W3C//DTD SVG 1.1//EN" "http://www.w3.org/Graphics/SVG/1.1/DTD/svg11.dtd">
<svg version="1.1" id="Layer_1" xmlns="http://www.w3.org/2000/svg" xmlns:xlink="http://www.w3.org/1999/xlink" x="0px" y="0px"
	 width="828px" height="118px" viewBox="0 0 828 118" enable-background="new 0 0 828 118" xml:space="preserve">
<g>
	<path fill="#043754" d="M35.594,38.987v41.908h16.549c8.627,0,14.843-1.663,18.539-4.924c3.755-3.268,5.621-8.612,5.621-16.07
		c0-7.385-1.874-12.73-5.671-15.997c-3.777-3.268-9.956-4.924-18.489-4.924H35.594V38.987z M2.299,17.681h55.065
		c17.806,0,31.415,3.646,40.732,11.031c9.367,7.334,14.036,18.024,14.036,32.082c0,14.008-4.676,24.676-13.971,31.988
		c-9.302,7.291-22.846,10.966-40.804,10.966H2.299V17.681z M163.546,74.12h21.298l-10.311-30.267L163.546,74.12z M116.94,103.733
		l37.216-85.957h42.249l34.755,85.957h-36.055l-2.876-8.445h-36.562l-3.087,8.445H116.94z M259.975,103.733V39.59h-31.036V17.783
		h95.542v21.814h-31.189v64.143h-33.317V103.733z M366.569,74.12h21.343l-10.363-30.267L366.569,74.12z M319.979,103.733
		l37.224-85.957h42.263l34.769,85.957h-36.12l-2.817-8.445h-36.563l-3.094,8.445H319.979z"/>
	<path fill="#043754" d="M622.619,39.59h-18.548v15.33h19.39c5.054,0,8.664-0.603,10.74-1.801c2.063-1.228,3.107-3.232,3.107-6.049
		c0-2.782-0.965-4.728-2.919-5.853C632.393,40.156,628.479,39.59,622.619,39.59"/>
	<polygon fill="#043754" points="497.761,74.12 519.066,74.12 508.719,43.853 	"/>
	<path fill="#043754" d="M442.84,114.4h338.644V8.48H442.84V114.4z M529.269,103.733l-2.824-8.445H489.91l-3.086,8.445h-35.67
		l37.231-85.957h42.22l34.77,85.957H529.269z M675.229,103.733h-37.005c-1.133-1.837-1.743-5.352-1.896-10.58
		c-0.035-3.079-0.181-5.418-0.392-7.095c-0.341-3.159-1.365-5.353-3.166-6.623c-1.743-1.285-4.727-1.902-8.845-1.902h-19.868v26.193
		h-33.767V17.783h65.421c7.493,0,13.471,0.378,17.966,1.082c4.516,0.712,7.973,1.837,10.515,3.348
		c3.202,1.88,5.649,4.429,7.349,7.654c1.691,3.202,2.534,6.847,2.534,11.066c0,5.062-1.271,9.528-3.783,13.362
		c-2.498,3.878-5.983,6.659-10.385,8.38c3.763,1.554,6.456,3.521,7.981,5.875c1.51,2.309,2.403,6.506,2.672,12.396
		c0.058,0.682,0.109,1.575,0.131,2.716c0.552,11.271,2.069,17.5,4.538,18.706V103.733z M773.46,39.59h-31.183v64.143h-33.31V39.59
		h-31.043V17.783h95.535V39.59z"/>
	<path fill="#043754" d="M810.146,8.575c-8.627,0-15.568,6.957-15.568,15.562c0,8.591,6.941,15.548,15.568,15.548
		c8.591,0,15.54-6.957,15.54-15.548C825.679,15.532,818.729,8.575,810.146,8.575 M810.146,36.563
		c-6.905,0-12.489-5.562-12.489-12.432c0-6.892,5.584-12.461,12.489-12.461c6.855,0,12.447,5.577,12.447,12.461
		C822.593,31.007,817.001,36.563,810.146,36.563"/>
	<path fill="#043754" d="M812.571,23.934v-0.036c0.98-0.225,2.738-0.981,2.738-3.326c0-1.925-0.988-3.878-4.801-3.878h-5.062v14.298
		h2.891v-5.874h1.082c0.98,0,1.518,0.479,1.866,1.35L813.146,31h3.209l-2.316-5.548C813.704,24.631,813.239,24.108,812.571,23.934
		 M809.913,22.852h-1.568v-3.914h1.568c2.267,0,2.418,1.474,2.418,1.953C812.331,21.719,811.75,22.852,809.913,22.852"/>
</g>
</svg>
